:SAMPLES-PER-SECOND 30
:FULLY-SPECIFIED
:DEGREES
208
root  34.85866757 36.52200774 -14.47321974 10.00060081 -3.271503925 5.209831238
lowerback  -7.798378468 -0.04706606641 -0.37749964
upperback  -4.139585972 0.5714078546 -4.983773708
thorax  0.1414649934 0.4820135534 -4.90495348
lowerneck  -4.238739967 -16.20499992 -10.76620007
upperneck  8.344730377 -22.1405983 11.47830009
head  5.680067539 -10.60079765 3.404705048
lclavicle  0 -4.497500157e-015 -2.743230041e-014
lhumerus  -47.45119858 29.97540092 60.52180099
lradius  0.0008530854248 -6.507048965e-006 28.76741791
lwrist  4.824992743e-007 -3.790274832e-007 -31.26210022
lhand  -4.445301581e-031 -37.40610123 -10.61030006
lfingers  90 7.125020027 -90
lthumb  95.03889657 -25.42898564 101.6039999
rclavicle  0 -4.497500157e-015 -2.743230041e-014
rhumerus  28.35849762 -40.09590149 -19.9863987
rradius  -5.16745672e-007 2.214343908e-008 37.42020035
rwrist  -2.867388866e-005 0.04252831265 -172.022995
rhand  -1.771034257e-031 4.505040169 -7.966340065
rfingers  -90 -7.125020027 -90
rthumb  -85.2685288 -8.163959088 -59.76434818
rfemur  -13.0901947 14.40646839 11.4668951
rtibia  -1.839203596 -2.11636591 21.10899544
rfoot  0.1064117402 -22.22994232 -35.89183044
rtoes  3.838980138 19.6429218 -101.288929
lfemur  -6.568033695 -17.9112339 -23.2558918
ltibia  5.48566246 -1.088922381 10.5643568
lfoot  1.234138846 -21.85745049 36.42739105
ltoes  -8.627735139 -18.11248621 -116.01532
209
root  34.85839724 36.52223001 -14.47439569 10.01599884 -3.302818537 5.203692436
lowerback  -7.774671078 -0.04738670588 -0.3769255877
upperback  -4.143392086 0.5712704062 -4.982884407
thorax  0.1272590011 0.4822200239 -4.904960155
lowerneck  -4.241590023 -16.19890022 -10.76299953
upperneck  8.346059799 -22.13400269 11.49709988
head  5.683826923 -10.59617805 3.407342434
lclavicle  0 -4.497500157e-015 -2.743230041e-014
lhumerus  -47.42089844 29.92060089 60.5387001
lradius  -1.548243745e-005 -6.507048965e-006 28.75335312
lwrist  4.824992743e-007 -3.790274832e-007 -31.24099922
lhand  -0 -37.41360092 -10.57089996
lfingers  90 7.125020027 -90
lthumb  95.03366435 -25.39014269 101.6083227
rclavicle  0 -4.497500157e-015 -2.743230041e-014
rhumerus  28.33889961 -40.12309647 -20.05850029
rradius  -5.16745672e-007 2.214343908e-008 37.48789978
rwrist  -2.867388866e-005 0.04193259776 -171.8300018
rhand  -1.770990629e-031 4.487090111 -7.898560047
rfingers  -90 -7.125020027 -90
rthumb  -85.23808625 -8.221285282 -59.77697661
rfemur  -13.11660767 14.44641972 11.46323395
rtibia  -1.834489584 -2.09683919 21.11785316
rfoot  0.1075458676 -22.19444466 -35.87779236
rtoes  3.845390409 19.6417156 -101.3079988
lfemur  -6.523293018 -17.90268898 -23.26358986
ltibia  5.526614189 -1.055605888 10.46969223
lfoot  1.264451504 -21.88195992 36.54046631
ltoes  -8.676498845 -18.08978562 -116.1722702
210
root  34.85753217 36.52174642 -14.47548003 10.01476002 -3.329011202 5.195809364
lowerback  -7.793614388 -0.04770327732 -0.3781685233
upperback  -4.146604538 0.5711150765 -4.981918812
thorax  0.1424430013 0.4824157953 -4.903520107
lowerneck  -4.25138998 -16.19199944 -10.77140045
upperneck  8.356249809 -22.12630272 11.51860046
head  5.68992281 -10.59024525 3.40873909
lclavicle  0 -4.497500157e-015 -2.743230041e-014
lhumerus  -47.43199921 29.97109985 60.51070023
lradius  -0.0009186871466 -6.507048965e-006 28.75304031
lwrist  4.824992743e-007 -3.790274832e-007 -31.34410095
lhand  -4.443487325e-031 -37.37549973 -10.68400002
lfingers  90 7.125020027 -90
lthumb  95.0409921 -25.50240271 101.57837
rclavicle  0 -4.497500157e-015 -2.743230041e-014
rhumerus  28.17220116 -40.01699829 -19.93380165
rradius  -5.16745672e-007 2.214343908e-008 37.52360153
rwrist  -2.867388866e-005 0.04133816808 -171.9149933
rhand  -1.770923262e-031 4.459229946 -7.887710094
rfingers  -90 -7.125020027 -90
rthumb  -85.23881686 -8.228764604 -59.80331655
rfemur  -13.13169765 14.47595406 11.4675293
rtibia  -1.832890391 -2.069730997 21.13239288
rfoot  0.109766528 -22.14788628 -35.87001801
rtoes  3.827904111 19.64500098 -101.2559817
lfemur  -6.542233944 -17.84768105 -23.24589539
ltibia  5.516811848 -1.046763182 10.4913187
lfoot  1.268279433 -21.9037323 36.53372955
ltoes  -8.700934684 -18.0783498 -116.2509908
211
root  34.85635172 36.52110963 -14.47624747 10.00914097 -3.347521305 5.186962128
lowerback  -7.799307346 -0.04796229675 -0.3902983963
upperback  -4.148693562 0.5709839463 -4.980865955
thorax  0.1440809965 0.4826062918 -4.891679764
lowerneck  -4.268280029 -16.18230057 -10.78079987
upperneck  8.367850304 -22.11300278 11.52499962
head  5.695428371 -10.5825367 3.409425974
lclavicle  0 -4.497500157e-015 -2.743230041e-014
lhumerus  -47.43840027 30.0121994 60.49140167
lradius  -0.001857073745 -6.507048965e-006 28.75301361
lwrist  4.824992743e-007 -3.790274832e-007 -31.37059975
lhand  -4.443185217e-031 -37.37039948 -10.66049957
lfingers  90 7.125020027 -90
lthumb  95.03337464 -25.47951702 101.5706858
rclavicle  0 -4.497500157e-015 -2.743230041e-014
rhumerus  27.97329903 -39.89319992 -19.72239876
rradius  -5.16745672e-007 2.214343908e-008 37.52679825
rwrist  -2.867388866e-005 0.04074493051 -172.1640015
rhand  -3.541852744e-031 4.460519791 -7.899250031
rfingers  -90 -7.125020027 -90
rthumb  -85.24437172 -8.218890835 -59.80282813
rfemur  -13.12175083 14.4642601 11.47301769
rtibia  -1.822978973 -2.078886747 21.12081718
rfoot  0.1145560071 -22.18468094 -35.84688187
rtoes  3.84332491 19.64210449 -101.301854
lfemur  -6.526702881 -17.90978622 -23.24404716
ltibia  5.518482685 -1.073421359 10.49064255
lfoot  1.258210182 -21.84050941 36.56509018
ltoes  -8.711290537 -18.07349113 -116.284367
212
root  34.8561775 36.52006735 -14.47641568 9.992338181 -3.367748976 5.183302402
lowerback  -7.798307419 -0.04811028764 -0.3945579231
upperback  -4.150266171 0.5709192157 -4.979060173
thorax  0.1271149963 0.4827970266 -4.888579845
lowerneck  -4.280640125 -16.18149948 -10.78960037
upperneck  8.393770218 -22.11219978 11.52149963
head  5.701630116 -10.58059978 3.409592628
lclavicle  0 -4.497500157e-015 -2.743230041e-014
lhumerus  -47.44490051 29.96999931 60.50419998
lradius  -0.002831188263 -6.507048965e-006 28.75284767
lwrist  4.824992743e-007 -3.790274832e-007 -31.34049988
lhand  -4.443108176e-031 -37.36909866 -10.60400009
lfingers  90 7.125020027 -90
lthumb  95.02018902 -25.42417991 101.56385
rclavicle  0 -4.497500157e-015 -2.743230041e-014
rhumerus  27.89749908 -39.91830063 -19.71479797
rradius  -5.16745672e-007 2.214343908e-008 37.58449936
rwrist  -2.867388866e-005 0.04015280679 -172.1840057
rhand  -1.770856439e-031 4.431419849 -7.874579906
rfingers  -90 -7.125020027 -90
rthumb  -85.23837099 -8.238225419 -59.82938974
rfemur  -13.09924603 14.49837112 11.47412872
rtibia  -1.816923499 -2.079812288 21.10678864
rfoot  0.1213549301 -22.19433022 -35.85094452
rtoes  3.858956542 19.639156 -101.3483602
lfemur  -6.538146973 -17.88136101 -23.23671913
ltibia  5.499320984 -1.083239436 10.53442955
lfoot  1.254671574 -21.84248352 36.54327774
ltoes  -8.700289066 -18.07865246 -116.2489103
213
root  34.8550421 36.52033168 -14.47691129 9.998299599 -3.403627872 5.15834856
lowerback  -7.796072006 -0.04809376225 -0.4182279706
upperback  -4.150934696 0.5709632039 -4.977019787
thorax  0.1304389983 0.4829933941 -4.881249905
lowerneck  -4.293399811 -16.18104935 -10.75909996
upperneck  8.412679672 -22.103302 11.4932003
head  5.706249714 -10.5793314 3.409427881
lclavicle  0 -4.497500157e-015 -2.743230041e-014
lhumerus  -47.42900085 29.95229912 60.5163002
lradius  -0.003841575235 -6.507048965e-006 28.75273895
lwrist  4.824992743e-007 -3.790274832e-007 -31.26239967
lhand  -4.444388229e-031 -37.39070129 -10.55819988
lfingers  90 7.125020027 -90
lthumb  95.02010057 -25.37856799 101.5825289
rclavicle  0 -4.497500157e-015 -2.743230041e-014
rhumerus  27.84309959 -39.94270325 -19.76659966
rradius  -5.16745672e-007 2.214343908e-008 37.66130066
rwrist  -2.867388866e-005 0.03956171498 -172.0820007
rhand  -1.770892478e-031 4.44644022 -7.972280025
rfingers  -90 -7.125020027 -90
rthumb  -85.28466239 -8.154743993 -59.82188259
rfemur  -13.08893299 14.50155354 11.48003674
rtibia  -1.80004847 -2.099774122 21.05719757
rfoot  0.1343205571 -22.2443943 -35.84682465
rtoes  3.867786116 19.63748502 -101.3746323
lfemur  -6.610635281 -17.87702942 -23.18052292
ltibia  5.447333336 -1.083818793 10.65103722
lfoot  1.281833887 -21.88844681 36.59738541
ltoes  -8.665162904 -18.09507707 -116.1357675
